# xmcd
#
# Track frame offsets:
#	150
#	24938
#	42344
#	61951
#	84665
#	108115
#	125285
#	161233
#	180150
#	197678
#	217931
#	243480
#	259249
#
# Disc length: 3837 seconds
#
# Revision: 0
# Processed by: cddbd v1.5.2PL0 Copyright (c) Steve Scherf et al.
# Submitted via: EZCDAudioConverter 4.1.0.1
#
DISCID=a60efb0d
DTITLE=Bruce Springsteen - 1990/11/16 Los Angeles, CA
DYEAR=1900
DGENRE=
TTITLE0=Brilliant Disguise
TTITLE1=Darkness On The Edge Of Town
TTITLE2=Mansion On The Hill
TTITLE3=Reason To Believe
TTITLE4=Red Headed Woman
TTITLE5=57 Channels (And Nothin' On)
TTITLE6=My Father's House
TTITLE7=Tenth Avenue Freeze-Out
TTITLE8=Atlantic City
TTITLE9=Wild Billy's Circus Story
TTITLE10=Nebraska
TTITLE11=When The Lights Go Out
TTITLE12=Thunder Road
EXTD=
EXTT0=
EXTT1=
EXTT2=
EXTT3=
EXTT4=
EXTT5=
EXTT6=
EXTT7=
EXTT8=
EXTT9=
EXTT10=
EXTT11=
EXTT12=
PLAYORDER=
